<svg xmlns="http://www.w3.org/2000/svg" width="18.75" height="25" viewBox="0 0 18.75 25">
  <g id="Groupe_4949" data-name="Groupe 4949" transform="translate(-327 -771.125)">
    <path id="Tracé_1155" data-name="Tracé 1155" d="M7.812-3.169a7.033,7.033,0,0,0,6.25-6.987,7.013,7.013,0,0,0-1.538-4.39l4.663-4.663v2.217a.588.588,0,0,0,.586.586h.391a.588.588,0,0,0,.586-.586v-4.3a.588.588,0,0,0-.586-.586h-4.3a.588.588,0,0,0-.586.586v.391a.588.588,0,0,0,.586.586h2.217l-4.663,4.663a7.013,7.013,0,0,0-4.39-1.538A7.033,7.033,0,0,0,0-10.156,7.03,7.03,0,0,0,6.25-3.169v2H3.711a.588.588,0,0,0-.586.586V-.2a.588.588,0,0,0,.586.586H6.25V2.539a.588.588,0,0,0,.586.586h.391a.588.588,0,0,0,.586-.586V.391h2.539A.588.588,0,0,0,10.937-.2V-.586a.588.588,0,0,0-.586-.586H7.812ZM7.031-4.687a5.463,5.463,0,0,1-5.469-5.469,5.463,5.463,0,0,1,5.469-5.469A5.463,5.463,0,0,1,12.5-10.156,5.463,5.463,0,0,1,7.031-4.687Z" transform="translate(327 793)" fill="inherit"/>
    <path id="Tracé_1154" data-name="Tracé 1154" d="M6.956-1.657a.847.847,0,0,0-.847.847.847.847,0,0,0,.847.847A.847.847,0,0,0,7.8-.81.847.847,0,0,0,6.956-1.657Zm.232-.726a.363.363,0,0,0,.363-.363v-.012C7.551-4.074,9.892-3.966,9.892-6c0-1.526-1.364-2.425-2.946-2.425A3.173,3.173,0,0,0,4.187-7.077a.362.362,0,0,0,.08.519l.4.277a.362.362,0,0,0,.491-.072,2,2,0,0,1,1.79-.868c1.2,0,1.737.611,1.737,1.216,0,1.324-2.342,1.121-2.342,3.248v.012a.363.363,0,0,0,.363.363Z" transform="translate(327.125 787.322)" fill="inherit" stroke="inherit" stroke-width="0.2"/>
  </g>
</svg>
