<svg width="20" height="20" viewBox="0 0 20 20" fill="none" xmlns="http://www.w3.org/2000/svg">
<path d="M2.75 5C2.55109 5 2.36032 5.07902 2.21967 5.21967C2.07902 5.36032 2 5.55109 2 5.75C2 5.94891 2.07902 6.13968 2.21967 6.28033C2.36032 6.42098 2.55109 6.5 2.75 6.5H17.25C17.4489 6.5 17.6397 6.42098 17.7803 6.28033C17.921 6.13968 18 5.94891 18 5.75C18 5.55109 17.921 5.36032 17.7803 5.21967C17.6397 5.07902 17.4489 5 17.25 5H2.75ZM2 10.75C2 10.5511 2.07902 10.3603 2.21967 10.2197C2.36032 10.079 2.55109 10 2.75 10H14.086C14.0551 10.087 14.0324 10.1768 14.018 10.268C13.3073 10.5172 12.6705 10.9408 12.166 11.5H2.75C2.55109 11.5 2.36032 11.421 2.21967 11.2803C2.07902 11.1397 2 10.9489 2 10.75ZM2.75 15H10.086C10.1762 15.2551 10.3336 15.481 10.5417 15.6539C10.7498 15.8267 11.0007 15.9401 11.268 15.982C11.33 16.1593 11.4027 16.332 11.486 16.5H2.75C2.55109 16.5 2.36032 16.421 2.21967 16.2803C2.07902 16.1397 2 15.9489 2 15.75C2 15.5511 2.07902 15.3603 2.21967 15.2197C2.36032 15.079 2.55109 15 2.75 15ZM16.056 15.332C15.9468 15.4058 15.8241 15.4572 15.695 15.4834C15.5659 15.5096 15.4328 15.5101 15.3035 15.4847C15.1743 15.4593 15.0512 15.4086 14.9416 15.3356C14.8319 15.2625 14.7378 15.1685 14.6646 15.0589C14.5914 14.9494 14.5406 14.8264 14.5151 14.6971C14.4896 14.5679 14.4898 14.4348 14.5159 14.3057C14.5419 14.1765 14.5933 14.0538 14.6669 13.9445C14.7405 13.8353 14.8351 13.7416 14.945 13.669C15.1654 13.5335 15.4297 13.4887 15.6824 13.544C15.9352 13.5993 16.1566 13.7504 16.3003 13.9655C16.444 14.1806 16.4987 14.4431 16.453 14.6977C16.4072 14.9523 16.2646 15.1793 16.055 15.331M18.949 14H19.5C19.6326 14 19.7598 14.0527 19.8536 14.1464C19.9473 14.2402 20 14.3674 20 14.5C20 14.6326 19.9473 14.7598 19.8536 14.8536C19.7598 14.9473 19.6326 15 19.5 15H18.949C18.8404 15.7435 18.4948 16.4321 17.9634 16.9634C17.4321 17.4948 16.7435 17.8404 16 17.949V18.5C16 18.6326 15.9473 18.7598 15.8536 18.8536C15.7598 18.9473 15.6326 19 15.5 19C15.3674 19 15.2402 18.9473 15.1464 18.8536C15.0527 18.7598 15 18.6326 15 18.5V17.949C14.2565 17.8404 13.5679 17.4948 13.0366 16.9634C12.5052 16.4321 12.1596 15.7435 12.051 15H11.5C11.3674 15 11.2402 14.9473 11.1464 14.8536C11.0527 14.7598 11 14.6326 11 14.5C11 14.3674 11.0527 14.2402 11.1464 14.1464C11.2402 14.0527 11.3674 14 11.5 14H12.051C12.1596 13.2565 12.5052 12.5679 13.0366 12.0366C13.5679 11.5052 14.2565 11.1596 15 11.051V10.5C15 10.3674 15.0527 10.2402 15.1464 10.1464C15.2402 10.0527 15.3674 10 15.5 10C15.6326 10 15.7598 10.0527 15.8536 10.1464C15.9473 10.2402 16 10.3674 16 10.5V11.051C16.7435 11.1596 17.4321 11.5052 17.9634 12.0366C18.4948 12.5679 18.8404 13.2565 18.949 14ZM15.745 16.988C16.0717 16.9558 16.3889 16.8596 16.6785 16.7049C16.968 16.5501 17.2242 16.3398 17.4325 16.086C17.6408 15.8323 17.7971 15.5399 17.8924 15.2258C17.9877 14.9116 18.0202 14.5817 17.988 14.255C17.9558 13.9283 17.8596 13.6111 17.7049 13.3215C17.5501 13.032 17.3398 12.7758 17.086 12.5675C16.8323 12.3592 16.5399 12.2029 16.2258 12.1076C15.9116 12.0123 15.5817 11.9798 15.255 12.012C14.5951 12.077 13.9881 12.4014 13.5675 12.914C13.1468 13.4265 12.947 14.0851 13.012 14.745C13.077 15.4049 13.4014 16.0119 13.914 16.4325C14.4265 16.8532 15.0851 17.053 15.745 16.988Z" fill="black"/>
</svg>
