<svg width="24" height="22" viewBox="0 0 24 22" fill="none" xmlns="http://www.w3.org/2000/svg">
<path d="M14.0475 1.9464C13.844 1.58256 13.5472 1.27957 13.1876 1.06867C12.828 0.857765 12.4187 0.746582 12.0019 0.746582C11.585 0.746582 11.1757 0.857765 10.8161 1.06867C10.4565 1.27957 10.1597 1.58256 9.95624 1.9464L1.04436 17.8876C0.845011 18.2442 0.742316 18.6467 0.746458 19.0552C0.750601 19.4636 0.861436 19.864 1.06798 20.2164C1.27452 20.5688 1.56959 20.8612 1.92394 21.0644C2.27829 21.2677 2.67961 21.3748 3.08811 21.3751H20.9081C21.3168 21.3751 21.7183 21.2683 22.0729 21.0651C22.4275 20.862 22.7229 20.5697 22.9296 20.2172C23.1364 19.8647 23.2474 19.4643 23.2516 19.0556C23.2559 18.647 23.1532 18.2443 22.9537 17.8876L14.0475 1.9464ZM13.4062 16.2189C13.4062 16.5919 13.2581 16.9495 12.9944 17.2133C12.7306 17.477 12.3729 17.6251 12 17.6251C11.627 17.6251 11.2693 17.477 11.0056 17.2133C10.7419 16.9495 10.5937 16.5919 10.5937 16.2189C10.5937 15.8459 10.7419 15.4883 11.0056 15.2245C11.2693 14.9608 11.627 14.8126 12 14.8126C12.3729 14.8126 12.7306 14.9608 12.9944 15.2245C13.2581 15.4883 13.4062 15.8459 13.4062 16.2189ZM11.0625 12.0001V7.31265C11.0625 7.06401 11.1613 6.82555 11.3371 6.64974C11.5129 6.47392 11.7513 6.37515 12 6.37515C12.2486 6.37515 12.4871 6.47392 12.6629 6.64974C12.8387 6.82555 12.9375 7.06401 12.9375 7.31265V12.0001C12.9375 12.2488 12.8387 12.4872 12.6629 12.6631C12.4871 12.8389 12.2486 12.9376 12 12.9376C11.7513 12.9376 11.5129 12.8389 11.3371 12.6631C11.1613 12.4872 11.0625 12.2488 11.0625 12.0001Z" fill="#F39634"/>
</svg>
