<svg width="552" height="200" viewBox="0 0 552 200" fill="none" xmlns="http://www.w3.org/2000/svg">
<circle cx="269.675" cy="108.697" r="7.90625" fill="#3D88C2"/>
<circle cx="157.406" cy="106.325" r="7.90625" fill="#CFDFFF"/>
<circle cx="303.672" cy="128.463" r="7.90625" fill="#3D88C2"/>
<circle cx="173.219" cy="141.113" r="7.90625" fill="#CFDFFF"/>
<circle cx="319.484" cy="92.8845" r="7.90625" fill="#3D88C2"/>
<circle cx="291.812" cy="86.5593" r="7.90625" fill="#3D88C2"/>
<circle cx="189.031" cy="96.8376" r="7.90625" fill="#CFDFFF"/>
<circle cx="305.253" cy="60.4688" r="7.90625" fill="#3D88C2"/>
<circle cx="176.381" cy="65.2126" r="7.90625" fill="#CFDFFF"/>
<circle cx="349.528" cy="70.7468" r="7.90625" fill="#CFDFFF"/>
<circle cx="208.797" cy="70.7468" r="7.90625" fill="#CFDFFF"/>
<circle cx="347.156" cy="128.463" r="7.90625" fill="#CFDFFF"/>
<circle cx="212.75" cy="126.091" r="7.90625" fill="#CFDFFF"/>
<circle cx="369.294" cy="98.4187" r="7.90625" fill="#CFDFFF"/>
<circle cx="240.422" cy="90.5125" r="7.90625" fill="#3D88C2"/>
<circle cx="390.641" cy="133.997" r="7.90625" fill="#CFDFFF"/>
<circle cx="254.653" cy="137.159" r="7.90625" fill="#3D88C2"/>
<circle cx="394.594" cy="65.2126" r="7.90625" fill="#CFDFFF"/>
<circle cx="264.141" cy="62.8406" r="7.90625" fill="#3D88C2"/>
<circle cx="279.953" cy="100" r="61.6688" stroke="#052C5F" stroke-width="2" stroke-linecap="round" stroke-dasharray="10 15"/>
</svg>
